<?xml version="1.0" standalone="no"?>
<!DOCTYPE svg PUBLIC "-//W3C//DTD SVG 20010904//EN"
 "http://www.w3.org/TR/2001/REC-SVG-20010904/DTD/svg10.dtd">
<svg version="1.0" xmlns="http://www.w3.org/2000/svg"
 width="350" height="75" viewBox="0 0 1024.000000 1024.000000"
 preserveAspectRatio="xMidYMid meet">

<g transform="translate(0.000000,1024.000000) scale(0.100000,-0.100000)"
fill="#00000" stroke="none">
<path d="M4760 8115 c-206 -123 -401 -240 -433 -259 -89 -55 -85 -63 113 -198
l165 -113 3 -127 c2 -84 7 -129 15 -136 7 -5 53 -17 102 -26 160 -31 328 -96
413 -159 l33 -25 63 38 c107 65 227 110 386 144 l105 22 3 127 3 126 97 67
c53 36 103 69 111 72 12 4 13 -12 8 -100 -5 -96 -8 -108 -31 -131 -36 -36 -35
-80 3 -118 16 -16 39 -29 51 -29 28 0 80 52 80 80 0 26 -18 62 -36 73 -11 6
-14 39 -14 135 l0 128 55 27 c43 21 55 32 55 50 0 13 -8 31 -17 39 -10 8 -155
95 -323 194 -168 98 -361 211 -430 251 -99 58 -133 73 -165 73 -34 0 -94 -33
-415 -225z m680 -337 c109 -32 207 -76 225 -101 17 -25 3 -57 -24 -57 -10 0
-45 12 -77 26 -243 108 -549 107 -782 -3 -56 -26 -79 -27 -95 -2 -17 27 0 49
58 74 170 75 270 95 460 91 122 -3 166 -8 235 -28z"/>
<path d="M3645 7363 c-97 -35 -162 -102 -190 -196 -44 -150 21 -303 159 -375
68 -35 177 -37 248 -5 144 65 215 244 158 396 -57 152 -226 233 -375 180z"/>
<path d="M6515 7363 c-65 -24 -110 -56 -146 -106 -57 -79 -73 -189 -42 -288
25 -78 116 -168 197 -193 136 -43 283 24 354 159 22 42 26 63 26 135 1 99 -22
158 -87 223 -77 77 -202 105 -302 70z"/>
<path d="M4342 7173 c-7 -3 -19 -18 -28 -35 -13 -26 -15 -88 -10 -495 5 -371
9 -471 20 -487 9 -15 118 -59 381 -156 202 -74 382 -145 398 -157 41 -31 100
-30 146 1 20 13 202 84 405 157 359 130 369 134 382 166 11 26 14 127 14 488
0 493 -1 507 -54 521 -24 6 -705 -230 -752 -261 -14 -9 -29 -28 -35 -42 -6
-15 -7 -163 -3 -391 7 -394 0 -597 -20 -605 -40 -16 -41 -9 -42 508 -1 474 -2
497 -20 515 -20 20 -153 73 -507 201 -205 75 -244 85 -275 72z"/>
<path d="M3580 6645 c-114 -32 -224 -142 -265 -266 l-18 -53 54 -49 c132 -117
357 -243 584 -325 120 -43 212 -69 220 -61 2 3 6 79 7 170 3 180 -8 244 -59
349 -35 73 -141 178 -216 215 -49 24 -74 29 -155 32 -65 2 -115 -2 -152 -12z"/>
<path d="M6558 6650 c-129 -23 -252 -119 -307 -240 -43 -92 -58 -176 -66 -362
l-7 -158 25 0 c33 0 233 69 358 124 149 66 274 139 393 227 l105 79 -20 59
c-41 119 -137 221 -242 255 -62 20 -176 28 -239 16z"/>
<path d="M2991 6390 c-6 -28 -10 -74 -10 -103 2 -48 2 -47 10 23 15 132 23
145 52 85 53 -111 184 -276 291 -368 70 -59 272 -171 346 -191 14 -4 -40 25
-119 64 -155 76 -242 139 -328 238 -59 68 -126 163 -172 245 -18 31 -39 57
-46 57 -8 0 -18 -20 -24 -50z"/>
<path d="M7295 6388 c-42 -84 -118 -179 -225 -281 -130 -126 -216 -182 -480
-313 -36 -18 -60 -33 -55 -33 19 -1 290 142 371 195 80 53 215 175 276 251 68
83 138 191 138 212 0 12 2 13 13 2 8 -9 12 -56 11 -169 0 -138 1 -148 9 -82 8
76 4 221 -8 253 -11 28 -22 20 -50 -35z"/>
<path d="M2991 6210 c-3 -78 81 -279 164 -396 46 -65 184 -214 185 -201 0 5
-33 43 -73 85 -40 42 -89 100 -110 129 -56 76 -125 231 -147 325 -10 46 -19
72 -19 58z"/>
<path d="M7326 6043 c-20 -146 -85 -350 -166 -520 -27 -57 -47 -103 -44 -103
8 0 93 179 127 270 52 140 114 400 95 400 -3 0 -8 -21 -12 -47z"/>
<path d="M2886 5861 c-14 -23 58 -174 128 -267 134 -179 420 -382 710 -504
123 -52 404 -150 428 -150 7 1 -59 25 -147 54 -540 181 -909 435 -1061 731
-46 89 -63 141 -42 129 7 -4 38 -28 68 -54 120 -100 305 -210 354 -210 12 1
-4 10 -34 20 -76 28 -191 99 -301 187 -50 40 -93 73 -95 73 -1 0 -5 -4 -8 -9z"/>
<path d="M3711 5826 c2 -2 35 -16 72 -30 179 -67 444 -126 752 -167 145 -20
216 -23 480 -24 325 0 353 2 769 61 98 14 180 23 182 21 6 -5 -114 -84 -196
-129 -96 -53 -289 -131 -425 -173 -159 -49 -181 -56 -135 -49 63 10 322 100
437 152 171 76 350 189 331 208 -5 4 -92 -5 -195 -20 -104 -14 -244 -33 -313
-42 -173 -22 -531 -29 -720 -15 -346 26 -727 99 -953 182 -76 28 -95 34 -86
25z"/>
<path d="M6285 5628 c-231 -137 -506 -276 -638 -323 -42 -15 -76 -30 -74 -32
6 -5 138 43 217 79 103 47 248 121 340 175 47 27 150 87 230 133 147 84 172
101 155 99 -6 0 -109 -59 -230 -131z"/>
<path d="M6542 5360 c-427 -315 -669 -448 -1042 -576 -85 -29 -149 -53 -142
-54 25 0 279 90 404 144 213 92 419 213 656 385 372 268 368 267 214 65 -114
-149 -223 -251 -387 -359 -212 -140 -462 -252 -713 -319 -70 -19 -117 -35
-105 -35 36 -1 255 65 390 119 133 52 309 144 432 225 153 99 269 205 375 343
101 132 116 153 116 168 0 31 -43 8 -198 -106z"/>
<path d="M7045 5318 c-133 -206 -338 -417 -555 -570 -89 -63 -154 -102 -295
-175 -66 -34 -116 -62 -112 -63 21 -1 257 129 364 199 248 166 437 351 590
581 51 76 76 120 70 120 -2 0 -30 -42 -62 -92z"/>
<path d="M5110 5320 c-20 -6 -21 -8 -5 -8 11 0 31 4 45 8 20 6 21 8 5 8 -11 0
-31 -4 -45 -8z"/>
<path d="M5048 5303 c6 -2 18 -2 25 0 6 3 1 5 -13 5 -14 0 -19 -2 -12 -5z"/>
<path d="M4895 5283 c-49 -7 -125 -17 -170 -22 -66 -7 -71 -9 -30 -10 49 -1
325 36 334 45 7 6 -36 3 -134 -13z"/>
<path d="M3982 5274 c16 -15 262 -33 443 -32 l200 1 -250 8 c-137 4 -279 12
-315 18 -76 12 -85 13 -78 5z"/>
<path d="M5520 5261 c-8 -5 -71 -26 -140 -46 -149 -43 -361 -83 -502 -95
l-103 -9 105 4 c123 4 245 24 425 70 126 32 276 83 245 84 -8 0 -22 -4 -30 -8z"/>
<path d="M3980 5245 c0 -15 175 -78 281 -100 36 -8 104 -18 150 -24 108 -13
366 -25 358 -17 -3 4 -53 9 -110 11 -318 14 -457 40 -636 116 -24 10 -43 16
-43 14z"/>
<path d="M3337 5073 c-10 -15 84 -114 185 -195 352 -284 769 -468 1233 -545
153 -25 541 -25 705 0 128 20 333 67 395 92 46 18 32 15 -125 -26 -171 -45
-344 -69 -540 -76 -414 -14 -775 64 -1165 251 -171 83 -293 156 -435 261 -104
78 -260 227 -242 233 5 1 58 -15 118 -38 114 -43 293 -95 300 -87 3 2 -24 12
-59 20 -36 9 -122 37 -193 63 -154 54 -170 59 -177 47z"/>
<path d="M3825 4925 c28 -7 61 -13 75 -13 14 0 -2 6 -35 14 -76 17 -107 16
-40 -1z"/>
<path d="M4178 4933 c7 -3 16 -2 19 1 4 3 -2 6 -13 5 -11 0 -14 -3 -6 -6z"/>
<path d="M4245 4915 c22 -8 49 -13 60 -13 11 0 -2 6 -30 14 -63 17 -84 16 -30
-1z"/>
<path d="M3990 4895 c83 -18 271 -39 296 -32 10 2 1 5 -21 6 -22 1 -87 8 -145
16 -181 24 -200 25 -130 10z"/>
<path d="M5272 4718 c-24 -5 -42 -12 -39 -14 5 -5 107 16 107 22 0 6 -17 4
-68 -8z"/>
<path d="M5110 4680 c-41 -10 -64 -18 -50 -18 14 0 57 8 95 18 90 23 53 23
-45 0z"/>
<path d="M4857 4650 c-105 -8 -135 -21 -104 -45 30 -22 257 -51 257 -34 0 5
-27 9 -61 9 -65 0 -199 27 -199 39 0 11 60 21 130 22 30 0 78 4 105 9 47 7 48
7 10 7 -22 0 -84 -3 -138 -7z"/>
<path d="M5280 4594 c-41 -7 -117 -13 -169 -13 -52 -1 -91 -4 -87 -8 15 -16
356 13 374 32 8 8 -35 4 -118 -11z"/>
<path d="M5977 4477 c-42 -17 -75 -32 -73 -35 5 -5 132 42 156 58 26 17 -2 9
-83 -23z"/>
<path d="M3215 3790 c-4 -6 -4 -117 0 -246 4 -129 4 -234 0 -234 -4 0 -23 14
-43 31 -87 77 -211 109 -337 89 -101 -16 -167 -50 -238 -122 -74 -75 -111
-140 -137 -244 -37 -144 -24 -306 35 -430 82 -171 238 -274 416 -274 103 0
170 29 247 107 l62 63 0 -70 c0 -56 3 -71 18 -78 9 -4 67 -6 128 -4 l111 4 -1
706 -1 707 -127 3 c-83 2 -129 -1 -133 -8z m-134 -594 c50 -24 98 -73 123
-126 18 -38 21 -64 21 -175 0 -143 -8 -168 -69 -233 -119 -127 -330 -94 -406
63 -31 63 -43 165 -30 248 25 165 119 252 260 244 36 -2 82 -12 101 -21z"/>
<path d="M1437 3783 c-4 -3 -7 -321 -7 -705 l0 -698 443 2 442 3 3 104 c2 67
-1 108 -9 117 -9 11 -67 14 -310 14 l-299 0 0 175 0 175 258 0 c141 0 263 4
270 8 9 6 12 37 10 118 l-3 109 -267 3 -268 2 0 170 0 170 293 0 c215 0 296 3
305 12 8 8 12 47 12 110 0 86 -2 98 -19 108 -22 11 -843 15 -854 3z"/>
<path d="M4845 3778 c-3 -7 -4 -323 -3 -703 l3 -690 130 0 130 0 5 469 5 469
39 -59 c21 -32 169 -245 329 -471 l290 -413 138 0 139 0 -2 703 -3 702 -125 0
-125 0 -5 -482 -5 -482 -244 347 c-135 191 -288 409 -340 484 l-96 137 -128 1
c-93 0 -129 -3 -132 -12z"/>
<path d="M8397 3674 c-4 -4 -7 -60 -7 -125 l0 -118 -77 -3 -78 -3 0 -110 0
-110 77 -3 77 -3 3 -307 3 -307 28 -57 c32 -66 70 -101 147 -137 48 -22 68
-26 160 -26 58 0 117 3 133 8 25 7 27 11 27 60 0 28 -3 75 -6 103 l-6 52 -74
4 c-45 3 -83 11 -99 22 -50 33 -55 63 -55 336 l0 250 103 0 c139 0 139 -1 135
125 l-3 100 -115 5 -115 5 -5 120 -5 120 -121 3 c-66 1 -123 -1 -127 -4z"/>
<path d="M6597 3425 c-176 -48 -303 -182 -352 -370 -19 -72 -21 -231 -5 -300
33 -138 133 -272 249 -333 95 -51 160 -65 280 -60 165 7 271 56 354 164 35 46
70 130 60 147 -2 4 -49 7 -105 7 l-100 0 -46 -40 c-56 -50 -131 -74 -199 -65
-59 9 -130 38 -161 68 -33 30 -72 111 -75 153 l-2 34 345 6 c190 3 349 9 353
13 16 16 20 127 7 200 -32 192 -165 340 -341 380 -61 14 -204 12 -262 -4z
m228 -214 c53 -24 98 -77 115 -135 7 -25 11 -49 8 -51 -3 -3 -106 -4 -230 -3
l-226 3 19 51 c48 127 194 190 314 135z"/>
<path d="M7579 3417 c-167 -57 -237 -157 -227 -320 6 -83 23 -122 79 -177 56
-54 126 -85 275 -120 137 -33 184 -55 202 -95 50 -108 -77 -190 -217 -140 -63
22 -97 50 -121 100 l-22 45 -57 0 c-32 0 -86 -3 -120 -6 -61 -7 -61 -7 -61
-39 0 -47 54 -147 106 -195 91 -83 197 -114 368 -108 149 6 209 29 292 112 67
67 94 126 94 206 0 168 -111 276 -330 320 -148 29 -195 47 -225 81 -66 80 4
169 132 169 80 0 130 -29 162 -94 l24 -49 101 7 c55 4 103 9 108 12 14 9 8 68
-11 110 -40 89 -131 162 -233 190 -85 22 -240 18 -319 -9z"/>
<path d="M3693 3414 c-20 -9 -18 -749 2 -824 38 -144 161 -230 329 -230 127 0
207 31 293 113 l53 50 0 -72 0 -71 125 0 125 0 -1 473 c0 259 -4 492 -7 517
l-7 45 -114 3 c-78 2 -118 -1 -128 -10 -12 -10 -14 -60 -11 -337 l3 -326 -25
-45 c-38 -68 -94 -101 -177 -107 -91 -7 -149 17 -190 78 l-28 42 -3 349 -3
348 -38 0 c-21 0 -71 2 -112 5 -41 3 -80 2 -86 -1z"/>
</g>
</svg>
